# This file uses centimeters as units for non-parametric coordinates.

mtllib TestBana1.mtl
g default
v -0.500000 -0.000000 0.500000
v 0.500000 -0.000000 0.500000
v -0.500000 -0.000000 -0.500000
v 0.500000 -0.000000 -0.500000
v -0.489729 0.006597 -0.722711
v -0.488495 0.004903 -0.862698
v -0.487582 0.003825 -1.020164
v -0.487903 0.009549 -1.177143
v -0.489832 0.026730 -1.334120
v -0.493844 0.059360 -1.491509
v -0.501986 0.104382 -1.645803
v -0.517171 0.154177 -1.793916
v -0.541872 0.202213 -1.934608
v -0.577950 0.242648 -2.066195
v -0.626654 0.270687 -2.187430
v -0.690597 0.286679 -2.310778
v -0.774994 0.293018 -2.462168
v -0.874622 0.286630 -2.646399
v -0.978304 0.265655 -2.865991
v -1.071906 0.229991 -3.123903
v -1.140007 0.181643 -3.418602
v -1.171522 0.126047 -3.731608
v -1.161924 0.067142 -4.052916
v -1.105176 0.007952 -4.376592
v -0.991874 -0.048172 -4.695438
v -0.809813 -0.096832 -4.998328
v -0.569492 -0.131732 -5.259612
v -0.307805 -0.151338 -5.467993
v -0.045804 -0.159031 -5.638573
v 0.202494 -0.157774 -5.785391
v 0.424254 -0.149860 -5.918211
v 0.608919 -0.138080 -6.043149
v 0.755131 -0.127152 -6.164823
v 0.861329 -0.121164 -6.283999
v 0.930036 -0.122639 -6.401642
v 0.969430 -0.133217 -6.525596
v 0.987781 -0.155913 -6.675698
v 0.990975 -0.192042 -6.878449
v 0.977425 -0.236197 -7.128534
v 0.950588 -0.278306 -7.408137
v 0.918349 -0.307421 -7.703716
v 0.890202 -0.312247 -8.005144
v 0.870567 -0.287546 -8.298851
v 0.852680 -0.242487 -8.570305
v 0.827738 -0.188373 -8.820971
v 0.788107 -0.134917 -9.055121
v 0.727152 -0.089989 -9.278300
v 0.638991 -0.058235 -9.498314
v 0.521043 -0.036839 -9.721622
v 0.373917 -0.023405 -9.944047
v 0.199605 -0.015793 -10.158979
v 0.000565 -0.011590 -10.360182
v -0.220643 -0.008331 -10.542769
v -0.464982 -0.004941 -10.717315
v -0.725977 -0.001499 -10.896420
v -0.987100 0.001981 -11.087836
v -1.233350 0.005482 -11.306644
v -1.447992 0.008985 -11.580860
v -1.593100 0.012467 -11.927893
v -1.633471 0.015915 -12.290886
v -1.588321 0.019337 -12.631152
v -1.486247 0.022746 -12.937202
v -1.348160 0.026151 -13.207530
v -1.186824 0.029560 -13.442826
v -1.002700 0.032972 -13.649170
v -0.795553 0.036386 -13.827093
v -0.568019 0.039799 -13.974560
v -0.323736 0.043210 -14.090527
v -0.066619 0.046616 -14.175374
v 0.196169 0.050016 -14.231436
v 0.457105 0.053410 -14.264645
v 0.714226 0.056798 -14.282033
v 0.966250 0.060182 -14.289579
v 1.211696 0.063562 -14.292401
v 0.507650 -0.045363 -0.672372
v 0.509536 -0.056601 -0.850402
v 0.510042 -0.064778 -1.013775
v 0.509227 -0.066022 -1.181672
v 0.506614 -0.054924 -1.354823
v 0.501576 -0.026333 -1.533881
v 0.491499 0.019044 -1.721339
v 0.472012 0.075524 -1.917732
v 0.438241 0.136108 -2.121711
v 0.384701 0.193109 -2.332371
v 0.305343 0.237830 -2.548402
v 0.203053 0.261487 -2.758836
v 0.098813 0.263620 -2.947551
v 0.005063 0.250500 -3.120580
v -0.071707 0.227192 -3.286230
v -0.127967 0.196996 -3.452370
v -0.162405 0.161509 -3.628100
v -0.175327 0.121444 -3.818644
v -0.162822 0.080013 -4.012562
v -0.122495 0.041347 -4.194322
v -0.055318 0.009248 -4.349657
v 0.034393 -0.013673 -4.468801
v 0.149921 -0.030786 -4.572404
v 0.304252 -0.045214 -4.684333
v 0.493663 -0.055397 -4.802968
v 0.707396 -0.060191 -4.927749
v 0.933514 -0.059126 -5.062394
v 1.161115 -0.052875 -5.213800
v 1.380636 -0.045411 -5.388897
v 1.584809 -0.042371 -5.598164
v 1.762281 -0.050957 -5.851889
v 1.896045 -0.079258 -6.153475
v 1.970615 -0.132347 -6.492718
v 1.990028 -0.199627 -6.835621
v 1.976110 -0.266764 -7.169672
v 1.945787 -0.323943 -7.494724
v 1.911556 -0.362228 -7.806356
v 1.884120 -0.373209 -8.096849
v 1.865638 -0.355860 -8.370735
v 1.846855 -0.317050 -8.648124
v 1.818419 -0.263617 -8.934504
v 1.769812 -0.203990 -9.232559
v 1.689518 -0.148439 -9.543696
v 1.568139 -0.107296 -9.864753
v 1.407487 -0.082392 -10.182211
v 1.210740 -0.070118 -10.489524
v 0.979697 -0.066611 -10.782577
v 0.715690 -0.068278 -11.056875
v 0.420839 -0.071734 -11.307281
v 0.117933 -0.075251 -11.526799
v -0.162159 -0.078697 -11.718701
v -0.398063 -0.082101 -11.891556
v -0.566880 -0.085494 -12.046604
v -0.647479 -0.088903 -12.172126
v -0.655190 -0.092335 -12.258559
v -0.641435 -0.095770 -12.349103
v -0.609300 -0.099206 -12.465426
v -0.552485 -0.102643 -12.601992
v -0.472381 -0.106076 -12.743284
v -0.376911 -0.109502 -12.873003
v -0.273151 -0.112921 -12.980986
v -0.162445 -0.116333 -13.068248
v -0.043227 -0.119741 -13.138415
v 0.087075 -0.123144 -13.194113
v 0.231270 -0.126544 -13.236610
v 0.393890 -0.129942 -13.267838
v 0.577756 -0.133336 -13.289674
v 0.779983 -0.136726 -13.303144
v 0.997003 -0.140111 -13.310327
v 1.225450 -0.143491 -13.314168
vt 0.000000 0.000000
vt 1.000000 0.000000
vt 0.000000 1.000000
vt 1.000000 1.000000
vt 0.000000 0.000000
vt 1.000000 0.000000
vt 1.000000 1.000000
vt 0.000000 1.000000
vt 0.000000 0.000000
vt 1.000000 0.000000
vt 1.000000 1.000000
vt 0.000000 1.000000
vt 0.000000 0.000000
vt 1.000000 0.000000
vt 1.000000 1.000000
vt 0.000000 1.000000
vt 0.000000 0.000000
vt 1.000000 0.000000
vt 1.000000 1.000000
vt 0.000000 1.000000
vt 0.000000 0.000000
vt 1.000000 0.000000
vt 1.000000 1.000000
vt 0.000000 1.000000
vt 0.000000 0.000000
vt 1.000000 0.000000
vt 1.000000 1.000000
vt 0.000000 1.000000
vt 0.000000 0.000000
vt 1.000000 0.000000
vt 1.000000 1.000000
vt 0.000000 1.000000
vt 0.000000 0.000000
vt 1.000000 0.000000
vt 1.000000 1.000000
vt 0.000000 1.000000
vt 0.000000 0.000000
vt 1.000000 0.000000
vt 1.000000 1.000000
vt 0.000000 1.000000
vt 0.000000 0.000000
vt 1.000000 0.000000
vt 1.000000 1.000000
vt 0.000000 1.000000
vt 0.000000 0.000000
vt 1.000000 0.000000
vt 1.000000 1.000000
vt 0.000000 1.000000
vt 0.000000 0.000000
vt 1.000000 0.000000
vt 1.000000 1.000000
vt 0.000000 1.000000
vt 0.000000 0.000000
vt 1.000000 0.000000
vt 1.000000 1.000000
vt 0.000000 1.000000
vt 0.000000 0.000000
vt 1.000000 0.000000
vt 1.000000 1.000000
vt 0.000000 1.000000
vt 0.000000 0.000000
vt 1.000000 0.000000
vt 1.000000 1.000000
vt 0.000000 1.000000
vt 0.000000 0.000000
vt 1.000000 0.000000
vt 1.000000 1.000000
vt 0.000000 1.000000
vt 0.000000 0.000000
vt 1.000000 0.000000
vt 1.000000 1.000000
vt 0.000000 1.000000
vt 0.000000 0.000000
vt 1.000000 0.000000
vt 1.000000 1.000000
vt 0.000000 1.000000
vt 0.000000 0.000000
vt 1.000000 0.000000
vt 1.000000 1.000000
vt 0.000000 1.000000
vt 0.000000 0.000000
vt 1.000000 0.000000
vt 1.000000 1.000000
vt 0.000000 1.000000
vt 0.000000 0.000000
vt 1.000000 0.000000
vt 1.000000 1.000000
vt 0.000000 1.000000
vt 0.000000 0.000000
vt 1.000000 0.000000
vt 1.000000 1.000000
vt 0.000000 1.000000
vt 0.000000 0.000000
vt 1.000000 0.000000
vt 1.000000 1.000000
vt 0.000000 1.000000
vt 0.000000 0.000000
vt 1.000000 0.000000
vt 1.000000 1.000000
vt 0.000000 1.000000
vt 0.000000 0.000000
vt 1.000000 0.000000
vt 1.000000 1.000000
vt 0.000000 1.000000
vt 0.000000 0.000000
vt 1.000000 0.000000
vt 1.000000 1.000000
vt 0.000000 1.000000
vt 0.000000 0.000000
vt 1.000000 0.000000
vt 1.000000 1.000000
vt 0.000000 1.000000
vt 0.000000 0.000000
vt 1.000000 0.000000
vt 1.000000 1.000000
vt 0.000000 1.000000
vt 0.000000 0.000000
vt 1.000000 0.000000
vt 1.000000 1.000000
vt 0.000000 1.000000
vt 0.000000 0.000000
vt 1.000000 0.000000
vt 1.000000 1.000000
vt 0.000000 1.000000
vt 0.000000 0.000000
vt 1.000000 0.000000
vt 1.000000 1.000000
vt 0.000000 1.000000
vt 0.000000 0.000000
vt 1.000000 0.000000
vt 1.000000 1.000000
vt 0.000000 1.000000
vt 0.000000 0.000000
vt 1.000000 0.000000
vt 1.000000 1.000000
vt 0.000000 1.000000
vt 0.000000 0.000000
vt 1.000000 0.000000
vt 1.000000 1.000000
vt 0.000000 1.000000
vt 0.000000 0.000000
vt 1.000000 0.000000
vt 1.000000 1.000000
vt 0.000000 1.000000
vt 0.000000 0.000000
vt 1.000000 0.000000
vt 1.000000 1.000000
vt 0.000000 1.000000
vt 0.000000 0.000000
vt 1.000000 0.000000
vt 1.000000 1.000000
vt 0.000000 1.000000
vt 0.000000 0.000000
vt 1.000000 0.000000
vt 1.000000 1.000000
vt 0.000000 1.000000
vt 0.000000 0.000000
vt 1.000000 0.000000
vt 1.000000 1.000000
vt 0.000000 1.000000
vt 0.000000 0.000000
vt 1.000000 0.000000
vt 1.000000 1.000000
vt 0.000000 1.000000
vt 0.000000 0.000000
vt 1.000000 0.000000
vt 1.000000 1.000000
vt 0.000000 1.000000
vt 0.000000 0.000000
vt 1.000000 0.000000
vt 1.000000 1.000000
vt 0.000000 1.000000
vt 0.000000 0.000000
vt 1.000000 0.000000
vt 1.000000 1.000000
vt 0.000000 1.000000
vt 0.000000 0.000000
vt 1.000000 0.000000
vt 1.000000 1.000000
vt 0.000000 1.000000
vt 0.000000 0.000000
vt 1.000000 0.000000
vt 1.000000 1.000000
vt 0.000000 1.000000
vt 0.000000 0.000000
vt 1.000000 0.000000
vt 1.000000 1.000000
vt 0.000000 1.000000
vt 0.000000 0.000000
vt 1.000000 0.000000
vt 1.000000 1.000000
vt 0.000000 1.000000
vt 0.000000 0.000000
vt 1.000000 0.000000
vt 1.000000 1.000000
vt 0.000000 1.000000
vt 0.000000 0.000000
vt 1.000000 0.000000
vt 1.000000 1.000000
vt 0.000000 1.000000
vt 0.000000 0.000000
vt 1.000000 0.000000
vt 1.000000 1.000000
vt 0.000000 1.000000
vt 0.000000 0.000000
vt 1.000000 0.000000
vt 1.000000 1.000000
vt 0.000000 1.000000
vt 0.000000 0.000000
vt 1.000000 0.000000
vt 1.000000 1.000000
vt 0.000000 1.000000
vt 0.000000 0.000000
vt 1.000000 0.000000
vt 1.000000 1.000000
vt 0.000000 1.000000
vt 0.000000 0.000000
vt 1.000000 0.000000
vt 1.000000 1.000000
vt 0.000000 1.000000
vt 0.000000 0.000000
vt 1.000000 0.000000
vt 1.000000 1.000000
vt 0.000000 1.000000
vt 0.000000 0.000000
vt 1.000000 0.000000
vt 1.000000 1.000000
vt 0.000000 1.000000
vt 0.000000 0.000000
vt 1.000000 0.000000
vt 1.000000 1.000000
vt 0.000000 1.000000
vt 0.000000 0.000000
vt 1.000000 0.000000
vt 1.000000 1.000000
vt 0.000000 1.000000
vt 0.000000 0.000000
vt 1.000000 0.000000
vt 1.000000 1.000000
vt 0.000000 1.000000
vt 0.000000 0.000000
vt 1.000000 0.000000
vt 1.000000 1.000000
vt 0.000000 1.000000
vt 0.000000 0.000000
vt 1.000000 0.000000
vt 1.000000 1.000000
vt 0.000000 1.000000
vt 0.000000 0.000000
vt 1.000000 0.000000
vt 1.000000 1.000000
vt 0.000000 1.000000
vt 0.000000 0.000000
vt 1.000000 0.000000
vt 1.000000 1.000000
vt 0.000000 1.000000
vt 0.000000 0.000000
vt 1.000000 0.000000
vt 1.000000 1.000000
vt 0.000000 1.000000
vt 0.000000 0.000000
vt 1.000000 0.000000
vt 1.000000 1.000000
vt 0.000000 1.000000
vt 0.000000 0.000000
vt 1.000000 0.000000
vt 1.000000 1.000000
vt 0.000000 1.000000
vt 0.000000 0.000000
vt 1.000000 0.000000
vt 1.000000 1.000000
vt 0.000000 1.000000
vt 0.000000 0.000000
vt 1.000000 0.000000
vt 1.000000 1.000000
vt 0.000000 1.000000
vt 0.000000 0.000000
vt 1.000000 0.000000
vt 1.000000 1.000000
vt 0.000000 1.000000
vt 0.000000 0.000000
vt 1.000000 0.000000
vt 1.000000 1.000000
vt 0.000000 1.000000
vn 0.000000 1.000000 0.000000
vn 0.000000 1.000000 0.000000
vn 0.004799 0.999855 -0.016331
vn 0.004577 0.999868 -0.015575
vn 0.041392 0.996576 -0.071570
vn 0.041746 0.996610 -0.070898
vn 0.061649 0.997511 -0.034223
vn 0.061664 0.997511 -0.034200
vn 0.068707 0.997609 -0.007437
vn 0.068731 0.997609 -0.007293
vn 0.075801 0.995921 0.048955
vn 0.075837 0.995901 0.049305
vn 0.083806 0.987887 0.130599
vn 0.083862 0.987802 0.131205
vn 0.092898 0.972569 0.213258
vn 0.092998 0.972393 0.214016
vn 0.102476 0.958397 0.266411
vn 0.102626 0.958236 0.266932
vn 0.110801 0.952976 0.282062
vn 0.110950 0.952973 0.282014
vn 0.114369 0.957991 0.263007
vn 0.114366 0.958264 0.262012
vn 0.107413 0.971810 0.209877
vn 0.106928 0.972379 0.207476
vn 0.084717 0.987961 0.129444
vn 0.083700 0.988426 0.126528
vn 0.051286 0.997688 0.044600
vn 0.050780 0.997764 0.043467
vn 0.019535 0.999453 -0.026688
vn 0.019643 0.999457 -0.026444
vn -0.003893 0.996446 -0.084138
vn -0.003539 0.996529 -0.083168
vn -0.017114 0.991559 -0.128522
vn -0.016849 0.991721 -0.127302
vn -0.020794 0.986950 -0.159677
vn -0.020806 0.987115 -0.158653
vn -0.017892 0.983738 -0.178716
vn -0.018107 0.983842 -0.178120
vn -0.011819 0.981985 -0.188589
vn -0.012120 0.982033 -0.188322
vn -0.004843 0.981598 -0.190899
vn -0.005183 0.981585 -0.190954
vn 0.001113 0.982600 -0.185730
vn 0.000819 0.982503 -0.186244
vn 0.003375 0.984970 -0.172692
vn 0.003385 0.984755 -0.173915
vn -0.000643 0.988088 -0.153887
vn -0.000105 0.987849 -0.155416
vn -0.010207 0.990883 -0.134342
vn -0.009584 0.990750 -0.135364
vn -0.022938 0.992963 -0.116179
vn -0.022508 0.992909 -0.116727
vn -0.037654 0.994395 -0.098801
vn -0.037441 0.994379 -0.099036
vn -0.054094 0.995221 -0.081294
vn -0.054119 0.995222 -0.081269
vn -0.070972 0.995466 -0.063321
vn -0.071238 0.995466 -0.063028
vn -0.081702 0.995493 -0.048152
vn -0.081833 0.995499 -0.047803
vn -0.078969 0.995998 -0.041856
vn -0.078490 0.996036 -0.041854
vn -0.061843 0.996821 -0.050230
vn -0.060365 0.996856 -0.051317
vn -0.034735 0.996307 -0.078519
vn -0.032504 0.996147 -0.081451
vn -0.007628 0.992067 -0.125477
vn -0.005864 0.991562 -0.129502
vn 0.008767 0.985528 -0.169284
vn 0.009248 0.985219 -0.171051
vn 0.016112 0.982259 -0.186836
vn 0.016279 0.982243 -0.186904
vn 0.023050 0.984086 -0.176192
vn 0.023177 0.984148 -0.175830
vn 0.033178 0.989644 -0.139657
vn 0.033244 0.989680 -0.139382
vn 0.047080 0.996165 -0.073745
vn 0.047026 0.996147 -0.074029
vn 0.062664 0.997874 0.017891
vn 0.062565 0.997892 0.017238
vn 0.076030 0.991385 0.106659
vn 0.076048 0.991370 0.106779
vn 0.086724 0.982360 0.165673
vn 0.086837 0.982272 0.166137
vn 0.095651 0.977342 0.188823
vn 0.095812 0.977309 0.188910
vn 0.100049 0.979493 0.174881
vn 0.100074 0.979662 0.173922
vn 0.095020 0.987093 0.128914
vn 0.094634 0.987397 0.126854
vn 0.081532 0.993965 0.073390
vn 0.080996 0.994136 0.071648
vn 0.066472 0.997370 0.028884
vn 0.066016 0.997435 0.027685
vn 0.053824 0.998546 -0.003147
vn 0.053478 0.998561 -0.003980
vn 0.044742 0.998673 -0.025515
vn 0.044517 0.998668 -0.026090
vn 0.039833 0.998389 -0.040398
vn 0.039747 0.998378 -0.040774
vn 0.038720 0.997983 -0.050300
vn 0.038732 0.997973 -0.050495
vn 0.040316 0.997526 -0.057581
vn 0.040336 0.997523 -0.057628
vn 0.044682 0.997021 -0.062870
vn 0.044621 0.997026 -0.062829
vn 0.053243 0.996462 -0.065034
vn 0.052885 0.996481 -0.065031
vn 0.068050 0.995832 -0.060723
vn 0.066817 0.995880 -0.061309
vn 0.088630 0.995090 -0.044047
vn 0.086088 0.995190 -0.046746
vn 0.105323 0.994286 -0.017387
vn 0.103588 0.994393 -0.021281
vn 0.113004 0.993556 0.008806
vn 0.112499 0.993633 0.006058
vn 0.115373 0.992817 0.031684
vn 0.115320 0.992871 0.030134
vn 0.115015 0.992020 0.051652
vn 0.115081 0.992063 0.050672
vn 0.112852 0.991160 0.069755
vn 0.112982 0.991199 0.068988
vn 0.108361 0.990231 0.087756
vn 0.108618 0.990273 0.086958
vn 0.100586 0.989235 0.106289
vn 0.101020 0.989282 0.105436
vn 0.089372 0.988188 0.124484
vn 0.089966 0.988238 0.123658
vn 0.075291 0.987100 0.141299
vn 0.075980 0.987150 0.140578
vn 0.059304 0.985970 0.156031
vn 0.060002 0.986019 0.155459
vn 0.043071 0.984803 0.168252
vn 0.043635 0.984844 0.167862
vn 0.028753 0.983602 0.178049
vn 0.029092 0.983633 0.177819
vn 0.017484 0.982360 0.186183
vn 0.017661 0.982382 0.186046
vn 0.009399 0.981066 0.193444
vn 0.009473 0.981081 0.193364
vn 0.004508 0.979722 0.200310
vn 0.004526 0.979730 0.200273
vn 0.002865 0.979036 0.203669
vn 0.002865 0.979036 0.203669
s 1
g pPlane2
usemtl initialShadingGroup
f 1/1/1 2/2/2 4/4/3 3/3/4
f 3/5/4 4/6/3 75/7/5 5/8/6
f 5/9/6 75/10/5 76/11/7 6/12/8
f 6/13/8 76/14/7 77/15/9 7/16/10
f 7/17/10 77/18/9 78/19/11 8/20/12
f 8/21/12 78/22/11 79/23/13 9/24/14
f 9/25/14 79/26/13 80/27/15 10/28/16
f 10/29/16 80/30/15 81/31/17 11/32/18
f 11/33/18 81/34/17 82/35/19 12/36/20
f 12/37/20 82/38/19 83/39/21 13/40/22
f 13/41/22 83/42/21 84/43/23 14/44/24
f 14/45/24 84/46/23 85/47/25 15/48/26
f 15/49/26 85/50/25 86/51/27 16/52/28
f 16/53/28 86/54/27 87/55/29 17/56/30
f 17/57/30 87/58/29 88/59/31 18/60/32
f 18/61/32 88/62/31 89/63/33 19/64/34
f 19/65/34 89/66/33 90/67/35 20/68/36
f 20/69/36 90/70/35 91/71/37 21/72/38
f 21/73/38 91/74/37 92/75/39 22/76/40
f 22/77/40 92/78/39 93/79/41 23/80/42
f 23/81/42 93/82/41 94/83/43 24/84/44
f 24/85/44 94/86/43 95/87/45 25/88/46
f 25/89/46 95/90/45 96/91/47 26/92/48
f 26/93/48 96/94/47 97/95/49 27/96/50
f 27/97/50 97/98/49 98/99/51 28/100/52
f 28/101/52 98/102/51 99/103/53 29/104/54
f 29/105/54 99/106/53 100/107/55 30/108/56
f 30/109/56 100/110/55 101/111/57 31/112/58
f 31/113/58 101/114/57 102/115/59 32/116/60
f 32/117/60 102/118/59 103/119/61 33/120/62
f 33/121/62 103/122/61 104/123/63 34/124/64
f 34/125/64 104/126/63 105/127/65 35/128/66
f 35/129/66 105/130/65 106/131/67 36/132/68
f 36/133/68 106/134/67 107/135/69 37/136/70
f 37/137/70 107/138/69 108/139/71 38/140/72
f 38/141/72 108/142/71 109/143/73 39/144/74
f 39/145/74 109/146/73 110/147/75 40/148/76
f 40/149/76 110/150/75 111/151/77 41/152/78
f 41/153/78 111/154/77 112/155/79 42/156/80
f 42/157/80 112/158/79 113/159/81 43/160/82
f 43/161/82 113/162/81 114/163/83 44/164/84
f 44/165/84 114/166/83 115/167/85 45/168/86
f 45/169/86 115/170/85 116/171/87 46/172/88
f 46/173/88 116/174/87 117/175/89 47/176/90
f 47/177/90 117/178/89 118/179/91 48/180/92
f 48/181/92 118/182/91 119/183/93 49/184/94
f 49/185/94 119/186/93 120/187/95 50/188/96
f 50/189/96 120/190/95 121/191/97 51/192/98
f 51/193/98 121/194/97 122/195/99 52/196/100
f 52/197/100 122/198/99 123/199/101 53/200/102
f 53/201/102 123/202/101 124/203/103 54/204/104
f 54/205/104 124/206/103 125/207/105 55/208/106
f 55/209/106 125/210/105 126/211/107 56/212/108
f 56/213/108 126/214/107 127/215/109 57/216/110
f 57/217/110 127/218/109 128/219/111 58/220/112
f 58/221/112 128/222/111 129/223/113 59/224/114
f 59/225/114 129/226/113 130/227/115 60/228/116
f 60/229/116 130/230/115 131/231/117 61/232/118
f 61/233/118 131/234/117 132/235/119 62/236/120
f 62/237/120 132/238/119 133/239/121 63/240/122
f 63/241/122 133/242/121 134/243/123 64/244/124
f 64/245/124 134/246/123 135/247/125 65/248/126
f 65/249/126 135/250/125 136/251/127 66/252/128
f 66/253/128 136/254/127 137/255/129 67/256/130
f 67/257/130 137/258/129 138/259/131 68/260/132
f 68/261/132 138/262/131 139/263/133 69/264/134
f 69/265/134 139/266/133 140/267/135 70/268/136
f 70/269/136 140/270/135 141/271/137 71/272/138
f 71/273/138 141/274/137 142/275/139 72/276/140
f 72/277/140 142/278/139 143/279/141 73/280/142
f 73/281/142 143/282/141 144/283/143 74/284/144
